<?xml version="1.0" encoding="UTF-8" standalone="no"?>
<!DOCTYPE svg PUBLIC "-//W3C//DTD SVG 1.1//EN"
 "http://www.w3.org/Graphics/SVG/1.1/DTD/svg11.dtd">
<!-- Generated by graphviz version 2.40.1 (20161225.0304)
 -->
<!-- Title: G Pages: 1 -->
<svg width="136pt" height="127pt"
 viewBox="0.00 0.00 136.00 127.00" xmlns="http://www.w3.org/2000/svg" xmlns:xlink="http://www.w3.org/1999/xlink">
<g id="graph0" class="graph" transform="scale(1 1) rotate(0) translate(4 123)">
<title>G</title>
<polygon fill="#ffffff" stroke="transparent" points="-4,4 -4,-123 132,-123 132,4 -4,4"/>
<!-- tollwerk/u2d&#45;ventari -->
<g id="node1" class="node">
<title>tollwerk/u2d&#45;ventari</title>
<path fill="#eeeeee" stroke="#000000" stroke-width="2" d="M116,-119C116,-119 12,-119 12,-119 6,-119 0,-113 0,-107 0,-107 0,-95 0,-95 0,-89 6,-83 12,-83 12,-83 116,-83 116,-83 122,-83 128,-89 128,-95 128,-95 128,-107 128,-107 128,-113 122,-119 116,-119"/>
<text text-anchor="middle" x="64" y="-97.3" font-family="Times,serif" font-size="14.00" fill="#314b5f">tollwerk/u2d&#45;ventari</text>
</g>
<!-- php -->
<g id="node2" class="node">
<title>php</title>
<path fill="#eeeeee" stroke="#000000" d="M79,-36C79,-36 49,-36 49,-36 43,-36 37,-30 37,-24 37,-24 37,-12 37,-12 37,-6 43,0 49,0 49,0 79,0 79,0 85,0 91,-6 91,-12 91,-12 91,-24 91,-24 91,-30 85,-36 79,-36"/>
<text text-anchor="middle" x="64" y="-14.3" font-family="Times,serif" font-size="14.00" fill="#314b5f">php</text>
</g>
<!-- tollwerk/u2d&#45;ventari&#45;&gt;php -->
<g id="edge1" class="edge">
<title>tollwerk/u2d&#45;ventari&#45;&gt;php</title>
<path fill="none" stroke="#1a2833" d="M64,-82.9902C64,-72.2963 64,-58.4994 64,-46.3706"/>
<polygon fill="#1a2833" stroke="#1a2833" points="67.5001,-46.2612 64,-36.2612 60.5001,-46.2613 67.5001,-46.2612"/>
<text text-anchor="middle" x="76.5" y="-57" font-family="Times,serif" font-size="10.00" fill="#767676">&gt;=7.2</text>
</g>
</g>
</svg>
