<?xml version="1.0" encoding="UTF-8" standalone="no"?>
<!DOCTYPE svg PUBLIC "-//W3C//DTD SVG 1.1//EN"
 "http://www.w3.org/Graphics/SVG/1.1/DTD/svg11.dtd">
<!-- Generated by graphviz version 2.40.1 (20161225.0304)
 -->
<!-- Title: G Pages: 1 -->
<svg width="437pt" height="293pt"
 viewBox="0.00 0.00 437.00 293.00" xmlns="http://www.w3.org/2000/svg" xmlns:xlink="http://www.w3.org/1999/xlink">
<g id="graph0" class="graph" transform="scale(1 1) rotate(0) translate(4 289)">
<title>G</title>
<polygon fill="#ffffff" stroke="transparent" points="-4,4 -4,-289 433,-289 433,4 -4,4"/>
<!-- tollwerk/u2d&#45;ventari -->
<g id="node1" class="node">
<title>tollwerk/u2d&#45;ventari</title>
<path fill="#eeeeee" stroke="#000000" stroke-width="2" d="M116,-285C116,-285 12,-285 12,-285 6,-285 0,-279 0,-273 0,-273 0,-261 0,-261 0,-255 6,-249 12,-249 12,-249 116,-249 116,-249 122,-249 128,-255 128,-261 128,-261 128,-273 128,-273 128,-279 122,-285 116,-285"/>
<text text-anchor="middle" x="64" y="-263.3" font-family="Times,serif" font-size="14.00" fill="#314b5f">tollwerk/u2d&#45;ventari</text>
</g>
<!-- php -->
<g id="node2" class="node">
<title>php</title>
<path fill="#eeeeee" stroke="#000000" d="M109,-36C109,-36 79,-36 79,-36 73,-36 67,-30 67,-24 67,-24 67,-12 67,-12 67,-6 73,0 79,0 79,0 109,0 109,0 115,0 121,-6 121,-12 121,-12 121,-24 121,-24 121,-30 115,-36 109,-36"/>
<text text-anchor="middle" x="94" y="-14.3" font-family="Times,serif" font-size="14.00" fill="#314b5f">php</text>
</g>
<!-- tollwerk/u2d&#45;ventari&#45;&gt;php -->
<g id="edge1" class="edge">
<title>tollwerk/u2d&#45;ventari&#45;&gt;php</title>
<path fill="none" stroke="#1a2833" d="M66.0103,-248.749C70.0977,-211.9059 79.7737,-126.0158 89,-54 89.3227,-51.4808 89.6676,-48.8639 90.0196,-46.2422"/>
<polygon fill="#1a2833" stroke="#1a2833" points="93.4914,-46.6867 91.3814,-36.3041 86.5562,-45.7364 93.4914,-46.6867"/>
<text text-anchor="middle" x="91.5" y="-140" font-family="Times,serif" font-size="10.00" fill="#767676">&gt;=7.2</text>
</g>
<!-- guzzle/guzzle -->
<g id="node3" class="node">
<title>guzzle/guzzle</title>
<path fill="#eeeeee" stroke="#000000" d="M213.5,-202C213.5,-202 104.5,-202 104.5,-202 98.5,-202 92.5,-196 92.5,-190 92.5,-190 92.5,-178 92.5,-178 92.5,-172 98.5,-166 104.5,-166 104.5,-166 213.5,-166 213.5,-166 219.5,-166 225.5,-172 225.5,-178 225.5,-178 225.5,-190 225.5,-190 225.5,-196 219.5,-202 213.5,-202"/>
<text text-anchor="middle" x="159" y="-180.3" font-family="Times,serif" font-size="14.00" fill="#314b5f">guzzle/guzzle: v3.9.3</text>
</g>
<!-- tollwerk/u2d&#45;ventari&#45;&gt;guzzle/guzzle -->
<g id="edge2" class="edge">
<title>tollwerk/u2d&#45;ventari&#45;&gt;guzzle/guzzle</title>
<path fill="none" stroke="#1a2833" d="M84.6136,-248.9902C97.9664,-237.3241 115.5458,-221.9652 130.2623,-209.1077"/>
<polygon fill="#1a2833" stroke="#1a2833" points="132.8707,-211.4764 138.0986,-202.2612 128.2651,-206.205 132.8707,-211.4764"/>
<text text-anchor="middle" x="126" y="-223" font-family="Times,serif" font-size="10.00" fill="#767676">^3.9</text>
</g>
<!-- guzzle/guzzle&#45;&gt;php -->
<g id="edge4" class="edge">
<title>guzzle/guzzle&#45;&gt;php</title>
<path fill="none" stroke="#1a2833" d="M138.4188,-165.942C126.2106,-153.9421 111.6648,-137.105 104,-119 94.231,-95.9245 92.2296,-67.3185 92.3805,-46.4475"/>
<polygon fill="#1a2833" stroke="#1a2833" points="95.8829,-46.3904 92.6259,-36.3086 88.8849,-46.2209 95.8829,-46.3904"/>
<text text-anchor="middle" x="120.5" y="-98.5" font-family="Times,serif" font-size="10.00" fill="#767676">&gt;=5.3.3</text>
</g>
<!-- ext&#45;curl -->
<g id="node4" class="node">
<title>ext&#45;curl</title>
<path fill="#eeeeee" stroke="#000000" d="M192.5,-119C192.5,-119 157.5,-119 157.5,-119 151.5,-119 145.5,-113 145.5,-107 145.5,-107 145.5,-95 145.5,-95 145.5,-89 151.5,-83 157.5,-83 157.5,-83 192.5,-83 192.5,-83 198.5,-83 204.5,-89 204.5,-95 204.5,-95 204.5,-107 204.5,-107 204.5,-113 198.5,-119 192.5,-119"/>
<text text-anchor="middle" x="175" y="-97.3" font-family="Times,serif" font-size="14.00" fill="#314b5f">ext&#45;curl</text>
</g>
<!-- guzzle/guzzle&#45;&gt;ext&#45;curl -->
<g id="edge3" class="edge">
<title>guzzle/guzzle&#45;&gt;ext&#45;curl</title>
<path fill="none" stroke="#1a2833" d="M162.4718,-165.9902C164.5332,-155.2963 167.1929,-141.4994 169.531,-129.3706"/>
<polygon fill="#1a2833" stroke="#1a2833" points="173.0235,-129.743 171.4798,-119.2612 166.1501,-128.4179 173.0235,-129.743"/>
<text text-anchor="middle" x="170" y="-140" font-family="Times,serif" font-size="10.00" fill="#767676">*</text>
</g>
<!-- symfony/event&#45;dispatcher -->
<g id="node5" class="node">
<title>symfony/event&#45;dispatcher</title>
<path fill="#eeeeee" stroke="#000000" d="M417,-119C417,-119 235,-119 235,-119 229,-119 223,-113 223,-107 223,-107 223,-95 223,-95 223,-89 229,-83 235,-83 235,-83 417,-83 417,-83 423,-83 429,-89 429,-95 429,-95 429,-107 429,-107 429,-113 423,-119 417,-119"/>
<text text-anchor="middle" x="326" y="-97.3" font-family="Times,serif" font-size="14.00" fill="#314b5f">symfony/event&#45;dispatcher: v2.8.42</text>
</g>
<!-- guzzle/guzzle&#45;&gt;symfony/event&#45;dispatcher -->
<g id="edge5" class="edge">
<title>guzzle/guzzle&#45;&gt;symfony/event&#45;dispatcher</title>
<path fill="none" stroke="#1a2833" d="M195.2365,-165.9902C220.2079,-153.5793 253.5881,-136.9891 280.3721,-123.6773"/>
<polygon fill="#1a2833" stroke="#1a2833" points="282.149,-126.7027 289.5462,-119.1177 279.0335,-120.4342 282.149,-126.7027"/>
<text text-anchor="middle" x="261.5" y="-140" font-family="Times,serif" font-size="10.00" fill="#767676">~2.1</text>
</g>
<!-- symfony/event&#45;dispatcher&#45;&gt;php -->
<g id="edge6" class="edge">
<title>symfony/event&#45;dispatcher&#45;&gt;php</title>
<path fill="none" stroke="#1a2833" d="M275.6595,-82.9902C232.0153,-67.3762 169.8812,-45.1472 130.7669,-31.1537"/>
<polygon fill="#1a2833" stroke="#1a2833" points="131.6976,-27.7694 121.103,-27.6963 129.3396,-34.3604 131.6976,-27.7694"/>
<text text-anchor="middle" x="239.5" y="-57" font-family="Times,serif" font-size="10.00" fill="#767676">&gt;=5.3.9</text>
</g>
</g>
</svg>
