<?xml version="1.0" encoding="UTF-8" standalone="no"?>
<!DOCTYPE svg PUBLIC "-//W3C//DTD SVG 1.1//EN"
 "http://www.w3.org/Graphics/SVG/1.1/DTD/svg11.dtd">
<!-- Generated by graphviz version 2.40.1 (20161225.0304)
 -->
<!-- Title: G Pages: 1 -->
<svg width="1093pt" height="401pt"
 viewBox="0.00 0.00 1092.50 401.00" xmlns="http://www.w3.org/2000/svg" xmlns:xlink="http://www.w3.org/1999/xlink">
<g id="graph0" class="graph" transform="scale(1 1) rotate(0) translate(4 397)">
<title>G</title>
<polygon fill="#ffffff" stroke="transparent" points="-4,4 -4,-397 1088.5,-397 1088.5,4 -4,4"/>
<!-- tollwerk/u2d&#45;ventari -->
<g id="node1" class="node">
<title>tollwerk/u2d&#45;ventari</title>
<path fill="#eeeeee" stroke="#000000" stroke-width="2" d="M171,-393C171,-393 67,-393 67,-393 61,-393 55,-387 55,-381 55,-381 55,-369 55,-369 55,-363 61,-357 67,-357 67,-357 171,-357 171,-357 177,-357 183,-363 183,-369 183,-369 183,-381 183,-381 183,-387 177,-393 171,-393"/>
<text text-anchor="middle" x="119" y="-371.3" font-family="Times,serif" font-size="14.00" fill="#314b5f">tollwerk/u2d&#45;ventari</text>
</g>
<!-- php -->
<g id="node2" class="node">
<title>php</title>
<path fill="#eeeeee" stroke="#000000" d="M359,-36C359,-36 329,-36 329,-36 323,-36 317,-30 317,-24 317,-24 317,-12 317,-12 317,-6 323,0 329,0 329,0 359,0 359,0 365,0 371,-6 371,-12 371,-12 371,-24 371,-24 371,-30 365,-36 359,-36"/>
<text text-anchor="middle" x="344" y="-14.3" font-family="Times,serif" font-size="14.00" fill="#314b5f">php</text>
</g>
<!-- tollwerk/u2d&#45;ventari&#45;&gt;php -->
<g id="edge1" class="edge">
<title>tollwerk/u2d&#45;ventari&#45;&gt;php</title>
<path fill="none" stroke="#1a2833" d="M57.7571,-356.9282C28.5992,-344.1764 0,-323.6117 0,-292 0,-292 0,-292 0,-101 0,-38.4955 217.328,-22.9162 306.5029,-19.1545"/>
<polygon fill="#1a2833" stroke="#1a2833" points="306.8649,-22.6431 316.7194,-18.752 306.5893,-15.6485 306.8649,-22.6431"/>
<text text-anchor="middle" x="12.5" y="-206.5" font-family="Times,serif" font-size="10.00" fill="#767676">&gt;=7.2</text>
</g>
<!-- ext&#45;json -->
<g id="node3" class="node">
<title>ext&#45;json</title>
<path fill="#eeeeee" stroke="#000000" d="M76,-310C76,-310 40,-310 40,-310 34,-310 28,-304 28,-298 28,-298 28,-286 28,-286 28,-280 34,-274 40,-274 40,-274 76,-274 76,-274 82,-274 88,-280 88,-286 88,-286 88,-298 88,-298 88,-304 82,-310 76,-310"/>
<text text-anchor="middle" x="58" y="-288.3" font-family="Times,serif" font-size="14.00" fill="#314b5f">ext&#45;json</text>
</g>
<!-- tollwerk/u2d&#45;ventari&#45;&gt;ext&#45;json -->
<g id="edge2" class="edge">
<title>tollwerk/u2d&#45;ventari&#45;&gt;ext&#45;json</title>
<path fill="none" stroke="#1a2833" d="M105.7639,-356.9902C97.5076,-345.7562 86.7346,-331.0979 77.5099,-318.5463"/>
<polygon fill="#1a2833" stroke="#1a2833" points="80.1633,-316.2464 71.4209,-310.2612 74.5227,-320.3919 80.1633,-316.2464"/>
<text text-anchor="middle" x="96" y="-331" font-family="Times,serif" font-size="10.00" fill="#767676">*</text>
</g>
<!-- guzzlehttp/guzzle -->
<g id="node4" class="node">
<title>guzzlehttp/guzzle</title>
<path fill="#eeeeee" stroke="#000000" d="M241.5,-310C241.5,-310 118.5,-310 118.5,-310 112.5,-310 106.5,-304 106.5,-298 106.5,-298 106.5,-286 106.5,-286 106.5,-280 112.5,-274 118.5,-274 118.5,-274 241.5,-274 241.5,-274 247.5,-274 253.5,-280 253.5,-286 253.5,-286 253.5,-298 253.5,-298 253.5,-304 247.5,-310 241.5,-310"/>
<text text-anchor="middle" x="180" y="-288.3" font-family="Times,serif" font-size="14.00" fill="#314b5f">guzzlehttp/guzzle: 6.3.3</text>
</g>
<!-- tollwerk/u2d&#45;ventari&#45;&gt;guzzlehttp/guzzle -->
<g id="edge3" class="edge">
<title>tollwerk/u2d&#45;ventari&#45;&gt;guzzlehttp/guzzle</title>
<path fill="none" stroke="#1a2833" d="M132.2361,-356.9902C140.4924,-345.7562 151.2654,-331.0979 160.4901,-318.5463"/>
<polygon fill="#1a2833" stroke="#1a2833" points="163.4773,-320.3919 166.5791,-310.2612 157.8367,-316.2464 163.4773,-320.3919"/>
<text text-anchor="middle" x="162" y="-331" font-family="Times,serif" font-size="10.00" fill="#767676">^6.3</text>
</g>
<!-- vlucas/phpdotenv -->
<g id="node5" class="node">
<title>vlucas/phpdotenv</title>
<path fill="#eeeeee" stroke="#000000" d="M757,-227C757,-227 627,-227 627,-227 621,-227 615,-221 615,-215 615,-215 615,-203 615,-203 615,-197 621,-191 627,-191 627,-191 757,-191 757,-191 763,-191 769,-197 769,-203 769,-203 769,-215 769,-215 769,-221 763,-227 757,-227"/>
<text text-anchor="middle" x="692" y="-205.3" font-family="Times,serif" font-size="14.00" fill="#314b5f">vlucas/phpdotenv: v3.3.3</text>
</g>
<!-- tollwerk/u2d&#45;ventari&#45;&gt;vlucas/phpdotenv -->
<g id="edge4" class="edge">
<title>tollwerk/u2d&#45;ventari&#45;&gt;vlucas/phpdotenv</title>
<path fill="none" stroke="#1a2833" d="M181.1384,-356.9983C288.1147,-326.0069 506.4861,-262.744 619.9466,-229.8741"/>
<polygon fill="#1a2833" stroke="#1a2833" points="620.9635,-233.2235 629.5946,-227.0791 619.0156,-226.5 620.9635,-233.2235"/>
<text text-anchor="middle" x="471" y="-289.5" font-family="Times,serif" font-size="10.00" fill="#767676">^3.3</text>
</g>
<!-- guzzlehttp/guzzle&#45;&gt;php -->
<g id="edge7" class="edge">
<title>guzzlehttp/guzzle&#45;&gt;php</title>
<path fill="none" stroke="#1a2833" d="M144.1859,-273.8479C95.7268,-246.6839 18.6209,-192.6703 49,-137 81.6572,-77.1551 115.0126,-80.0862 178,-54 220.3451,-36.4628 272.4594,-26.9506 306.8728,-22.1832"/>
<polygon fill="#1a2833" stroke="#1a2833" points="307.4983,-25.6311 316.9542,-20.8524 306.5821,-18.6913 307.4983,-25.6311"/>
<text text-anchor="middle" x="61.5" y="-152.5" font-family="Times,serif" font-size="10.00" fill="#767676">&gt;=5.5</text>
</g>
<!-- guzzlehttp/promises -->
<g id="node6" class="node">
<title>guzzlehttp/promises</title>
<path fill="#eeeeee" stroke="#000000" d="M239,-173C239,-173 95,-173 95,-173 89,-173 83,-167 83,-161 83,-161 83,-149 83,-149 83,-143 89,-137 95,-137 95,-137 239,-137 239,-137 245,-137 251,-143 251,-149 251,-149 251,-161 251,-161 251,-167 245,-173 239,-173"/>
<text text-anchor="middle" x="167" y="-151.3" font-family="Times,serif" font-size="14.00" fill="#314b5f">guzzlehttp/promises: v1.3.1</text>
</g>
<!-- guzzlehttp/guzzle&#45;&gt;guzzlehttp/promises -->
<g id="edge5" class="edge">
<title>guzzlehttp/guzzle&#45;&gt;guzzlehttp/promises</title>
<path fill="none" stroke="#1a2833" d="M178.2737,-273.8075C176.0786,-250.675 172.2649,-210.4836 169.6877,-183.3242"/>
<polygon fill="#1a2833" stroke="#1a2833" points="173.1625,-182.8924 168.7334,-173.2678 166.1938,-183.5537 173.1625,-182.8924"/>
<text text-anchor="middle" x="185" y="-248" font-family="Times,serif" font-size="10.00" fill="#767676">^1.0</text>
</g>
<!-- guzzlehttp/psr7 -->
<g id="node7" class="node">
<title>guzzlehttp/psr7</title>
<path fill="#eeeeee" stroke="#000000" d="M358.5,-227C358.5,-227 247.5,-227 247.5,-227 241.5,-227 235.5,-221 235.5,-215 235.5,-215 235.5,-203 235.5,-203 235.5,-197 241.5,-191 247.5,-191 247.5,-191 358.5,-191 358.5,-191 364.5,-191 370.5,-197 370.5,-203 370.5,-203 370.5,-215 370.5,-215 370.5,-221 364.5,-227 358.5,-227"/>
<text text-anchor="middle" x="303" y="-205.3" font-family="Times,serif" font-size="14.00" fill="#314b5f">guzzlehttp/psr7: 1.5.2</text>
</g>
<!-- guzzlehttp/guzzle&#45;&gt;guzzlehttp/psr7 -->
<g id="edge6" class="edge">
<title>guzzlehttp/guzzle&#45;&gt;guzzlehttp/psr7</title>
<path fill="none" stroke="#1a2833" d="M206.6892,-273.9902C224.5378,-261.946 248.2192,-245.9659 267.6327,-232.8657"/>
<polygon fill="#1a2833" stroke="#1a2833" points="269.6066,-235.7561 275.9382,-227.2612 265.6911,-229.9536 269.6066,-235.7561"/>
<text text-anchor="middle" x="257" y="-248" font-family="Times,serif" font-size="10.00" fill="#767676">^1.4</text>
</g>
<!-- vlucas/phpdotenv&#45;&gt;php -->
<g id="edge16" class="edge">
<title>vlucas/phpdotenv&#45;&gt;php</title>
<path fill="none" stroke="#1a2833" d="M686.936,-190.8369C678.2365,-163.1214 657.7437,-110.5905 621,-83 583.318,-54.705 447.9441,-32.4814 381.4253,-22.9959"/>
<polygon fill="#1a2833" stroke="#1a2833" points="381.7557,-19.508 371.3662,-21.5839 380.7826,-26.44 381.7557,-19.508"/>
<text text-anchor="middle" x="675" y="-98.5" font-family="Times,serif" font-size="10.00" fill="#767676">^5.4 || ^7.0</text>
</g>
<!-- phpoption/phpoption -->
<g id="node10" class="node">
<title>phpoption/phpoption</title>
<path fill="#eeeeee" stroke="#000000" d="M863.5,-119C863.5,-119 722.5,-119 722.5,-119 716.5,-119 710.5,-113 710.5,-107 710.5,-107 710.5,-95 710.5,-95 710.5,-89 716.5,-83 722.5,-83 722.5,-83 863.5,-83 863.5,-83 869.5,-83 875.5,-89 875.5,-95 875.5,-95 875.5,-107 875.5,-107 875.5,-113 869.5,-119 863.5,-119"/>
<text text-anchor="middle" x="793" y="-97.3" font-family="Times,serif" font-size="14.00" fill="#314b5f">phpoption/phpoption: 1.5.0</text>
</g>
<!-- vlucas/phpdotenv&#45;&gt;phpoption/phpoption -->
<g id="edge17" class="edge">
<title>vlucas/phpdotenv&#45;&gt;phpoption/phpoption</title>
<path fill="none" stroke="#1a2833" d="M709.1333,-190.6793C725.6288,-173.0405 750.7216,-146.2086 769.1631,-126.489"/>
<polygon fill="#1a2833" stroke="#1a2833" points="771.8457,-128.7446 776.1198,-119.0502 766.733,-123.9633 771.8457,-128.7446"/>
<text text-anchor="middle" x="766" y="-152.5" font-family="Times,serif" font-size="10.00" fill="#767676">^1.5</text>
</g>
<!-- symfony/polyfill&#45;ctype -->
<g id="node11" class="node">
<title>symfony/polyfill&#45;ctype</title>
<path fill="#eeeeee" stroke="#000000" d="M1072.5,-119C1072.5,-119 905.5,-119 905.5,-119 899.5,-119 893.5,-113 893.5,-107 893.5,-107 893.5,-95 893.5,-95 893.5,-89 899.5,-83 905.5,-83 905.5,-83 1072.5,-83 1072.5,-83 1078.5,-83 1084.5,-89 1084.5,-95 1084.5,-95 1084.5,-107 1084.5,-107 1084.5,-113 1078.5,-119 1072.5,-119"/>
<text text-anchor="middle" x="989" y="-97.3" font-family="Times,serif" font-size="14.00" fill="#314b5f">symfony/polyfill&#45;ctype: v1.10.0</text>
</g>
<!-- vlucas/phpdotenv&#45;&gt;symfony/polyfill&#45;ctype -->
<g id="edge18" class="edge">
<title>vlucas/phpdotenv&#45;&gt;symfony/polyfill&#45;ctype</title>
<path fill="none" stroke="#1a2833" d="M741.7111,-190.9232C793.4303,-172.1162 874.408,-142.6698 929.4959,-122.6378"/>
<polygon fill="#1a2833" stroke="#1a2833" points="930.9249,-125.8425 939.1267,-119.1357 928.5326,-119.264 930.9249,-125.8425"/>
<text text-anchor="middle" x="893" y="-152.5" font-family="Times,serif" font-size="10.00" fill="#767676">^1.9</text>
</g>
<!-- guzzlehttp/promises&#45;&gt;php -->
<g id="edge8" class="edge">
<title>guzzlehttp/promises&#45;&gt;php</title>
<path fill="none" stroke="#1a2833" d="M162.1945,-136.7555C159.2057,-121.5105 157.3809,-99.6536 166,-83 176.259,-63.1777 186.771,-63.4319 207,-54 239.1581,-39.006 278.5849,-29.478 306.8722,-24.0175"/>
<polygon fill="#1a2833" stroke="#1a2833" points="307.5603,-27.4497 316.7558,-22.1872 306.2856,-20.5667 307.5603,-27.4497"/>
<text text-anchor="middle" x="182.5" y="-98.5" font-family="Times,serif" font-size="10.00" fill="#767676">&gt;=5.5.0</text>
</g>
<!-- guzzlehttp/psr7&#45;&gt;php -->
<g id="edge9" class="edge">
<title>guzzlehttp/psr7&#45;&gt;php</title>
<path fill="none" stroke="#1a2833" d="M292.0711,-190.8316C282.4892,-175.633 267.6736,-153.8015 252,-137 243.3822,-127.7621 235.41,-130.4165 230,-119 223.1483,-104.5413 221.9626,-96.8348 230,-83 246.4907,-54.6144 280.5339,-37.5903 307.146,-28.1308"/>
<polygon fill="#1a2833" stroke="#1a2833" points="308.5505,-31.3519 316.9294,-24.8677 306.3357,-24.7115 308.5505,-31.3519"/>
<text text-anchor="middle" x="246.5" y="-98.5" font-family="Times,serif" font-size="10.00" fill="#767676">&gt;=5.4.0</text>
</g>
<!-- psr/http&#45;message -->
<g id="node8" class="node">
<title>psr/http&#45;message</title>
<path fill="#eeeeee" stroke="#000000" d="M404,-119C404,-119 284,-119 284,-119 278,-119 272,-113 272,-107 272,-107 272,-95 272,-95 272,-89 278,-83 284,-83 284,-83 404,-83 404,-83 410,-83 416,-89 416,-95 416,-95 416,-107 416,-107 416,-113 410,-119 404,-119"/>
<text text-anchor="middle" x="344" y="-97.3" font-family="Times,serif" font-size="14.00" fill="#314b5f">psr/http&#45;message: 1.0.1</text>
</g>
<!-- guzzlehttp/psr7&#45;&gt;psr/http&#45;message -->
<g id="edge10" class="edge">
<title>guzzlehttp/psr7&#45;&gt;psr/http&#45;message</title>
<path fill="none" stroke="#1a2833" d="M309.9551,-190.6793C316.4143,-173.6649 326.1207,-148.0967 333.5188,-128.6091"/>
<polygon fill="#1a2833" stroke="#1a2833" points="336.8706,-129.6414 337.1476,-119.0502 330.3263,-127.1569 336.8706,-129.6414"/>
<text text-anchor="middle" x="338.5" y="-152.5" font-family="Times,serif" font-size="10.00" fill="#767676">~1.0</text>
</g>
<!-- ralouphie/getallheaders -->
<g id="node9" class="node">
<title>ralouphie/getallheaders</title>
<path fill="#eeeeee" stroke="#000000" d="M600,-119C600,-119 446,-119 446,-119 440,-119 434,-113 434,-107 434,-107 434,-95 434,-95 434,-89 440,-83 446,-83 446,-83 600,-83 600,-83 606,-83 612,-89 612,-95 612,-95 612,-107 612,-107 612,-113 606,-119 600,-119"/>
<text text-anchor="middle" x="523" y="-97.3" font-family="Times,serif" font-size="14.00" fill="#314b5f">ralouphie/getallheaders: 2.0.5</text>
</g>
<!-- guzzlehttp/psr7&#45;&gt;ralouphie/getallheaders -->
<g id="edge11" class="edge">
<title>guzzlehttp/psr7&#45;&gt;ralouphie/getallheaders</title>
<path fill="none" stroke="#1a2833" d="M339.8231,-190.9232C377.499,-172.4277 436.1359,-143.6424 476.8797,-123.6409"/>
<polygon fill="#1a2833" stroke="#1a2833" points="478.6225,-126.6844 486.0568,-119.1357 475.5378,-120.4007 478.6225,-126.6844"/>
<text text-anchor="middle" x="457.5" y="-152.5" font-family="Times,serif" font-size="10.00" fill="#767676">^2.0.5</text>
</g>
<!-- psr/http&#45;message&#45;&gt;php -->
<g id="edge13" class="edge">
<title>psr/http&#45;message&#45;&gt;php</title>
<path fill="none" stroke="#1a2833" d="M344,-82.9902C344,-72.2963 344,-58.4994 344,-46.3706"/>
<polygon fill="#1a2833" stroke="#1a2833" points="347.5001,-46.2612 344,-36.2612 340.5001,-46.2613 347.5001,-46.2612"/>
<text text-anchor="middle" x="360.5" y="-57" font-family="Times,serif" font-size="10.00" fill="#767676">&gt;=5.3.0</text>
</g>
<!-- ralouphie/getallheaders&#45;&gt;php -->
<g id="edge14" class="edge">
<title>ralouphie/getallheaders&#45;&gt;php</title>
<path fill="none" stroke="#1a2833" d="M484.1597,-82.9902C453.3562,-68.707 410.615,-48.8885 380.4518,-34.9022"/>
<polygon fill="#1a2833" stroke="#1a2833" points="381.6761,-31.612 371.1315,-30.5805 378.7314,-37.9625 381.6761,-31.612"/>
<text text-anchor="middle" x="456.5" y="-57" font-family="Times,serif" font-size="10.00" fill="#767676">&gt;=5.3</text>
</g>
<!-- phpoption/phpoption&#45;&gt;php -->
<g id="edge12" class="edge">
<title>phpoption/phpoption&#45;&gt;php</title>
<path fill="none" stroke="#1a2833" d="M750.6823,-82.9906C725.3853,-72.9426 692.3588,-61.0635 662,-54 562.1965,-30.7789 441.1511,-22.3315 381.2679,-19.4232"/>
<polygon fill="#1a2833" stroke="#1a2833" points="381.3114,-15.9215 371.1608,-18.9572 380.9889,-22.9141 381.3114,-15.9215"/>
<text text-anchor="middle" x="714.5" y="-57" font-family="Times,serif" font-size="10.00" fill="#767676">&gt;=5.3.0</text>
</g>
<!-- symfony/polyfill&#45;ctype&#45;&gt;php -->
<g id="edge15" class="edge">
<title>symfony/polyfill&#45;ctype&#45;&gt;php</title>
<path fill="none" stroke="#1a2833" d="M902.6169,-82.994C853.6266,-73.2913 791.0843,-61.7543 735,-54 605.5776,-36.1058 450.7843,-24.8269 381.1527,-20.2879"/>
<polygon fill="#1a2833" stroke="#1a2833" points="381.3215,-16.7916 371.1173,-19.6422 380.8719,-23.7772 381.3215,-16.7916"/>
<text text-anchor="middle" x="821.5" y="-57" font-family="Times,serif" font-size="10.00" fill="#767676">&gt;=5.3.3</text>
</g>
</g>
</svg>
